<svg width="418" height="418" viewBox="0 0 418 418" fill="none" xmlns="http://www.w3.org/2000/svg">
<g filter="url(#filter0_d_1_89)">
<path d="M410.007 201C410.007 213.363 408.89 225.466 406.751 237.209C401.326 267.035 389.317 294.57 372.271 318.25C358.813 336.974 342.2 353.292 323.217 366.411C299.256 382.995 271.519 394.5 241.549 399.371C230.959 401.107 220.087 402.001 209.007 402.001C196.644 402.001 184.541 400.884 172.798 398.745C142.965 393.32 115.43 381.31 91.757 364.265C73.026 350.807 56.715 334.194 43.596 315.211C27.012 291.25 15.506 263.506 10.636 233.543C8.90005 222.952 8.00604 212.081 8.00604 201.001C8.00604 188.638 9.12305 176.535 11.262 164.792C16.687 134.951 28.696 107.417 45.735 83.744C59.2 65.02 75.813 48.709 94.789 35.583C118.57 19.128 146.069 7.67302 175.78 2.73102C176.01 2.69502 176.234 2.65899 176.464 2.62299C187.054 0.900986 197.926 0.000976562 209.006 0.000976562C220.331 0.000976562 231.426 0.937018 242.239 2.73102C243.233 2.89702 244.228 3.069 245.215 3.25C275.048 8.675 302.583 20.692 326.263 37.73C344.98 51.195 361.29 67.808 374.424 86.784C391.001 110.745 402.507 138.497 407.384 168.459C409.114 179.049 410.007 189.92 410.007 201Z" fill="#008E05"/>
<path d="M245.216 3.24902V23.198C245.216 33.767 236.643 42.332 226.081 42.332H195.607C185.031 42.332 176.465 33.766 176.465 23.198V2.62201C187.055 0.900009 197.927 0 209.007 0C220.332 0 231.427 0.93598 242.24 2.72998C243.235 2.89598 244.229 3.06902 245.216 3.24902Z" fill="white"/>
<path d="M108.882 76.733L87.3341 98.2811C79.8631 105.759 67.7461 105.759 60.2751 98.2811L45.7371 83.743C59.2021 65.019 75.8151 48.708 94.7911 35.582L108.883 49.6741C116.36 57.1451 116.353 69.263 108.882 76.733Z" fill="white"/>
<path d="M50.34 183.926V214.4C50.34 224.976 41.7741 233.542 31.2051 233.542H10.6371C8.90105 222.951 8.00705 212.08 8.00705 201C8.00705 188.637 9.12405 176.534 11.2631 164.791H31.2051C41.7741 164.792 50.34 173.365 50.34 183.926Z" fill="white"/>
<path d="M106.288 349.733L91.7571 364.264C73.0261 350.806 56.7151 334.193 43.5961 315.21L57.68 301.126C65.151 293.648 77.2691 293.655 84.7391 301.126L106.287 322.674C113.766 330.144 113.766 342.262 106.288 349.733Z" fill="white"/>
<path d="M241.549 378.802V399.37C230.959 401.106 220.087 402 209.007 402C196.644 402 184.541 400.883 172.798 398.744V378.802C172.798 368.233 181.371 359.668 191.933 359.668H222.407C232.983 359.668 241.549 368.234 241.549 378.802Z" fill="white"/>
<path d="M372.271 318.25C358.813 336.974 342.2 353.292 323.217 366.411L309.133 352.326C301.655 344.855 301.662 332.738 309.133 325.267L330.681 303.719C338.152 296.241 350.27 296.241 357.74 303.719L372.271 318.25Z" fill="white"/>
<path d="M410.007 201C410.007 213.363 408.89 225.466 406.751 237.209H386.81C376.241 237.209 367.675 228.636 367.675 218.075V187.6C367.675 177.024 376.241 168.458 386.81 168.458H407.385C409.114 179.049 410.007 189.92 410.007 201Z" fill="white"/>
<path d="M374.425 86.783L360.334 100.875C352.863 108.353 340.745 108.346 333.275 100.875L311.727 79.327C304.249 71.856 304.249 59.738 311.727 52.268L326.265 37.73C344.981 51.194 361.292 67.807 374.425 86.783Z" fill="white"/>
<path d="M126.474 93.9277L103.32 116.548L104.862 118.127L128.016 95.5064L126.474 93.9277Z" fill="white"/>
<path d="M83.961 149.497L75.2211 180.663L77.3459 181.259L86.0858 150.093L83.961 149.497Z" fill="white"/>
<path d="M75.0248 218.886L83.0397 250.249L85.178 249.702L77.1632 218.339L75.0248 218.886Z" fill="white"/>
<path d="M101.939 283.541L124.559 306.695L126.138 305.153L103.518 281.999L101.939 283.541Z" fill="white"/>
<path d="M157.477 325.971L188.646 334.711L189.242 332.586L158.073 323.846L157.477 325.971Z" fill="white"/>
<path d="M226.882 334.986L258.246 326.971L257.699 324.833L226.336 332.847L226.882 334.986Z" fill="white"/>
<path d="M291.544 308.063L314.698 285.443L313.156 283.865L290.002 306.485L291.544 308.063Z" fill="white"/>
<path d="M333.987 252.533L342.727 221.364L340.602 220.768L331.862 251.937L333.987 252.533Z" fill="white"/>
<path d="M343 183.121L334.985 151.757L332.847 152.304L340.862 183.667L343 183.121Z" fill="white"/>
<path d="M316.073 118.47L293.453 95.3157L291.875 96.8579L314.495 120.012L316.073 118.47Z" fill="white"/>
<path d="M260.53 76.0145L229.361 67.2746L228.765 69.3997L259.934 78.1396L260.53 76.0145Z" fill="white"/>
<path d="M191.122 67.009L159.759 75.0238L160.305 77.1622L191.668 69.1474L191.122 67.009Z" fill="white"/>
<path d="M297.638 289.636C346.592 240.682 346.592 161.312 297.638 112.359C248.685 63.4049 169.315 63.4049 120.361 112.359C71.4078 161.312 71.4077 240.682 120.361 289.636C169.315 338.589 248.685 338.589 297.638 289.636Z" fill="white"/>
<path d="M209.095 249.273C203.095 249.273 197.746 248.242 193.049 246.182C188.383 244.121 184.671 241.258 181.913 237.591C179.186 233.894 177.701 229.606 177.459 224.727H188.913C189.156 227.727 190.186 230.318 192.004 232.5C193.822 234.652 196.201 236.318 199.14 237.5C202.08 238.682 205.337 239.273 208.913 239.273C212.913 239.273 216.459 238.576 219.549 237.182C222.64 235.788 225.065 233.848 226.822 231.364C228.58 228.879 229.459 226 229.459 222.727C229.459 219.303 228.61 216.288 226.913 213.682C225.216 211.045 222.731 208.985 219.459 207.5C216.186 206.015 212.186 205.273 207.459 205.273H200.004V195.273H207.459C211.156 195.273 214.398 194.606 217.186 193.273C220.004 191.939 222.201 190.061 223.777 187.636C225.383 185.212 226.186 182.364 226.186 179.091C226.186 175.939 225.489 173.197 224.095 170.864C222.701 168.53 220.731 166.712 218.186 165.409C215.671 164.106 212.701 163.455 209.277 163.455C206.065 163.455 203.034 164.045 200.186 165.227C197.368 166.379 195.065 168.061 193.277 170.273C191.489 172.455 190.519 175.091 190.368 178.182H179.459C179.64 173.303 181.11 169.03 183.868 165.364C186.625 161.667 190.231 158.788 194.686 156.727C199.171 154.667 204.095 153.636 209.459 153.636C215.216 153.636 220.156 154.803 224.277 157.136C228.398 159.439 231.565 162.485 233.777 166.273C235.989 170.061 237.095 174.152 237.095 178.545C237.095 183.788 235.716 188.258 232.959 191.955C230.231 195.652 226.519 198.212 221.822 199.636V200.364C227.701 201.333 232.292 203.833 235.595 207.864C238.898 211.864 240.549 216.818 240.549 222.727C240.549 227.788 239.171 232.333 236.413 236.364C233.686 240.364 229.959 243.515 225.231 245.818C220.504 248.121 215.125 249.273 209.095 249.273Z" fill="#008E05"/>
</g>
<defs>
<filter id="filter0_d_1_89" x="0.00604248" y="0" width="418.001" height="418.001" filterUnits="userSpaceOnUse" color-interpolation-filters="sRGB">
<feFlood flood-opacity="0" result="BackgroundImageFix"/>
<feColorMatrix in="SourceAlpha" type="matrix" values="0 0 0 0 0 0 0 0 0 0 0 0 0 0 0 0 0 0 127 0" result="hardAlpha"/>
<feOffset dy="8"/>
<feGaussianBlur stdDeviation="4"/>
<feComposite in2="hardAlpha" operator="out"/>
<feColorMatrix type="matrix" values="0 0 0 0 0 0 0 0 0 0 0 0 0 0 0 0 0 0 0.25 0"/>
<feBlend mode="normal" in2="BackgroundImageFix" result="effect1_dropShadow_1_89"/>
<feBlend mode="normal" in="SourceGraphic" in2="effect1_dropShadow_1_89" result="shape"/>
</filter>
</defs>
</svg>
