<svg width="418" height="418" viewBox="0 0 418 418" fill="none" xmlns="http://www.w3.org/2000/svg">
<g filter="url(#filter0_d_1_131)">
<path d="M410.005 201.002C410.005 213.365 408.888 225.468 406.749 237.211C401.324 267.037 389.315 294.572 372.269 318.252C358.811 336.976 342.198 353.294 323.215 366.413C299.254 382.997 271.517 394.502 241.547 399.373C230.957 401.109 220.085 402.003 209.005 402.003C196.642 402.003 184.539 400.886 172.796 398.747C142.963 393.322 115.428 381.312 91.755 364.267C73.024 350.809 56.713 334.196 43.594 315.213C27.01 291.252 15.504 263.508 10.634 233.545C8.89803 222.954 8.00403 212.083 8.00403 201.003C8.00403 188.64 9.12103 176.537 11.26 164.794C16.685 134.953 28.694 107.419 45.733 83.746C59.198 65.022 75.811 48.711 94.787 35.585C118.568 19.13 146.067 7.67497 175.778 2.73297C176.008 2.69697 176.232 2.66094 176.462 2.62494C187.052 0.902939 197.924 0.00292969 209.004 0.00292969C220.329 0.00292969 231.424 0.938971 242.237 2.73297C243.231 2.89897 244.226 3.07095 245.213 3.25195C275.046 8.67695 302.581 20.6939 326.261 37.7319C344.978 51.1969 361.288 67.81 374.422 86.7859C390.999 110.747 402.505 138.499 407.382 168.461C409.112 179.051 410.005 189.922 410.005 201.002Z" fill="#008E05"/>
<path d="M245.214 3.25098V23.2C245.214 33.769 236.641 42.3339 226.079 42.3339H195.605C185.029 42.3339 176.463 33.768 176.463 23.2V2.62396C187.053 0.901962 197.925 0.00195312 209.005 0.00195312C220.33 0.00195312 231.425 0.937934 242.238 2.73193C243.233 2.89793 244.227 3.07098 245.214 3.25098Z" fill="white"/>
<path d="M108.88 76.735L87.332 98.283C79.861 105.761 67.744 105.761 60.273 98.283L45.735 83.745C59.2 65.021 75.813 48.71 94.789 35.584L108.881 49.676C116.358 57.147 116.351 69.265 108.88 76.735Z" fill="white"/>
<path d="M50.338 183.928V214.402C50.338 224.978 41.772 233.544 31.203 233.544H10.635C8.89901 222.953 8.005 212.082 8.005 201.002C8.005 188.639 9.12201 176.536 11.261 164.793H31.203C41.772 164.794 50.338 173.367 50.338 183.928Z" fill="white"/>
<path d="M106.286 349.735L91.755 364.266C73.024 350.808 56.713 334.195 43.594 315.212L57.678 301.128C65.149 293.65 77.267 293.657 84.737 301.128L106.285 322.676C113.764 330.146 113.764 342.264 106.286 349.735Z" fill="white"/>
<path d="M241.547 378.804V399.372C230.957 401.108 220.085 402.002 209.005 402.002C196.642 402.002 184.539 400.885 172.796 398.746V378.804C172.796 368.235 181.369 359.67 191.931 359.67H222.405C232.981 359.67 241.547 368.236 241.547 378.804Z" fill="white"/>
<path d="M372.269 318.252C358.811 336.976 342.198 353.294 323.215 366.413L309.131 352.328C301.653 344.857 301.66 332.74 309.131 325.269L330.679 303.721C338.15 296.243 350.268 296.243 357.738 303.721L372.269 318.252Z" fill="white"/>
<path d="M410.005 201.002C410.005 213.365 408.888 225.468 406.749 237.211H386.808C376.239 237.211 367.673 228.638 367.673 218.077V187.602C367.673 177.026 376.239 168.46 386.808 168.46H407.383C409.112 179.051 410.005 189.922 410.005 201.002Z" fill="white"/>
<path d="M374.423 86.785L360.332 100.877C352.861 108.355 340.743 108.348 333.273 100.877L311.725 79.329C304.247 71.858 304.247 59.74 311.725 52.27L326.263 37.7319C344.979 51.1959 361.29 67.809 374.423 86.785Z" fill="white"/>
<path d="M126.472 93.9297L103.318 116.55L104.86 118.129L128.014 95.5084L126.472 93.9297Z" fill="white"/>
<path d="M83.959 149.499L75.2191 180.665L77.3439 181.261L86.0838 150.095L83.959 149.499Z" fill="white"/>
<path d="M75.0228 218.887L83.0376 250.251L85.176 249.704L77.1612 218.341L75.0228 218.887Z" fill="white"/>
<path d="M101.937 283.543L124.557 306.697L126.136 305.155L103.516 282.001L101.937 283.543Z" fill="white"/>
<path d="M157.475 325.973L188.644 334.713L189.24 332.588L158.071 323.848L157.475 325.973Z" fill="white"/>
<path d="M226.88 334.988L258.244 326.973L257.697 324.835L226.334 332.849L226.88 334.988Z" fill="white"/>
<path d="M291.542 308.065L314.696 285.445L313.154 283.867L290 306.487L291.542 308.065Z" fill="white"/>
<path d="M333.985 252.535L342.725 221.366L340.6 220.77L331.86 251.939L333.985 252.535Z" fill="white"/>
<path d="M342.998 183.123L334.983 151.759L332.845 152.306L340.86 183.669L342.998 183.123Z" fill="white"/>
<path d="M316.071 118.472L293.451 95.3177L291.872 96.8599L314.493 120.014L316.071 118.472Z" fill="white"/>
<path d="M260.528 76.0164L229.359 67.2765L228.763 69.4017L259.932 78.1416L260.528 76.0164Z" fill="white"/>
<path d="M191.12 67.011L159.757 75.0258L160.303 77.1641L191.666 69.1493L191.12 67.011Z" fill="white"/>
<path d="M297.636 289.638C346.59 240.684 346.59 161.314 297.636 112.361C248.683 63.4068 169.313 63.4068 120.359 112.361C71.4058 161.314 71.4057 240.684 120.359 289.638C169.313 338.591 248.683 338.591 297.636 289.638Z" fill="white"/>
<path d="M208.277 153.636C212.095 153.667 215.913 154.394 219.731 155.818C223.549 157.242 227.034 159.606 230.186 162.909C233.337 166.182 235.868 170.652 237.777 176.318C239.686 181.985 240.64 189.091 240.64 197.636C240.64 205.909 239.853 213.258 238.277 219.682C236.731 226.076 234.489 231.47 231.549 235.864C228.64 240.258 225.095 243.591 220.913 245.864C216.762 248.136 212.065 249.273 206.822 249.273C201.61 249.273 196.959 248.242 192.868 246.182C188.807 244.091 185.474 241.197 182.868 237.5C180.292 233.773 178.64 229.455 177.913 224.545H189.004C190.004 228.818 191.989 232.348 194.959 235.136C197.959 237.894 201.913 239.273 206.822 239.273C214.004 239.273 219.671 236.136 223.822 229.864C228.004 223.591 230.095 214.727 230.095 203.273H229.368C227.671 205.818 225.656 208.015 223.322 209.864C220.989 211.712 218.398 213.136 215.549 214.136C212.701 215.136 209.671 215.636 206.459 215.636C201.125 215.636 196.231 214.318 191.777 211.682C187.353 209.015 183.807 205.364 181.14 200.727C178.504 196.061 177.186 190.727 177.186 184.727C177.186 179.03 178.459 173.818 181.004 169.091C183.58 164.333 187.186 160.545 191.822 157.727C196.489 154.909 201.974 153.545 208.277 153.636ZM208.277 163.636C204.459 163.636 201.019 164.591 197.959 166.5C194.928 168.379 192.519 170.924 190.731 174.136C188.974 177.318 188.095 180.848 188.095 184.727C188.095 188.606 188.943 192.136 190.64 195.318C192.368 198.47 194.716 200.985 197.686 202.864C200.686 204.712 204.095 205.636 207.913 205.636C210.792 205.636 213.474 205.076 215.959 203.955C218.443 202.803 220.61 201.242 222.459 199.273C224.337 197.273 225.807 195.015 226.868 192.5C227.928 189.955 228.459 187.303 228.459 184.545C228.459 180.909 227.58 177.5 225.822 174.318C224.095 171.136 221.701 168.561 218.64 166.591C215.61 164.621 212.156 163.636 208.277 163.636Z" fill="#008E05"/>
</g>
<defs>
<filter id="filter0_d_1_131" x="0.00402832" y="0.00195312" width="418.001" height="418.001" filterUnits="userSpaceOnUse" color-interpolation-filters="sRGB">
<feFlood flood-opacity="0" result="BackgroundImageFix"/>
<feColorMatrix in="SourceAlpha" type="matrix" values="0 0 0 0 0 0 0 0 0 0 0 0 0 0 0 0 0 0 127 0" result="hardAlpha"/>
<feOffset dy="8"/>
<feGaussianBlur stdDeviation="4"/>
<feComposite in2="hardAlpha" operator="out"/>
<feColorMatrix type="matrix" values="0 0 0 0 0 0 0 0 0 0 0 0 0 0 0 0 0 0 0.25 0"/>
<feBlend mode="normal" in2="BackgroundImageFix" result="effect1_dropShadow_1_131"/>
<feBlend mode="normal" in="SourceGraphic" in2="effect1_dropShadow_1_131" result="shape"/>
</filter>
</defs>
</svg>
