<svg width="418" height="418" viewBox="0 0 418 418" fill="none" xmlns="http://www.w3.org/2000/svg">
<g filter="url(#filter0_d_1_75)">
<path d="M410.005 201C410.005 213.363 408.888 225.466 406.749 237.209C401.324 267.035 389.315 294.57 372.269 318.25C358.811 336.974 342.198 353.292 323.215 366.411C299.254 382.995 271.517 394.5 241.547 399.371C230.957 401.107 220.085 402.001 209.005 402.001C196.642 402.001 184.539 400.884 172.796 398.745C142.963 393.32 115.428 381.31 91.755 364.265C73.024 350.807 56.713 334.194 43.594 315.211C27.01 291.25 15.504 263.506 10.634 233.543C8.89803 222.952 8.00403 212.081 8.00403 201.001C8.00403 188.638 9.12103 176.535 11.26 164.792C16.685 134.951 28.694 107.417 45.733 83.744C59.198 65.02 75.811 48.709 94.787 35.583C118.568 19.128 146.067 7.67302 175.778 2.73102C176.008 2.69502 176.232 2.65899 176.462 2.62299C187.052 0.900986 197.924 0.000976562 209.004 0.000976562C220.329 0.000976562 231.424 0.937018 242.237 2.73102C243.231 2.89702 244.226 3.069 245.213 3.25C275.046 8.675 302.581 20.692 326.261 37.73C344.978 51.195 361.288 67.808 374.422 86.784C390.999 110.745 402.505 138.497 407.382 168.459C409.112 179.049 410.005 189.92 410.005 201Z" fill="#008E05"/>
<path d="M245.214 3.24902V23.198C245.214 33.767 236.641 42.332 226.079 42.332H195.605C185.029 42.332 176.463 33.766 176.463 23.198V2.62201C187.053 0.900009 197.925 0 209.005 0C220.33 0 231.425 0.93598 242.238 2.72998C243.233 2.89598 244.227 3.06902 245.214 3.24902Z" fill="white"/>
<path d="M108.88 76.733L87.332 98.2811C79.861 105.759 67.744 105.759 60.273 98.2811L45.735 83.743C59.2 65.019 75.813 48.708 94.789 35.582L108.881 49.6741C116.358 57.1451 116.351 69.263 108.88 76.733Z" fill="white"/>
<path d="M50.338 183.926V214.4C50.338 224.976 41.772 233.542 31.203 233.542H10.635C8.89901 222.951 8.005 212.08 8.005 201C8.005 188.637 9.12201 176.534 11.261 164.791H31.203C41.772 164.792 50.338 173.365 50.338 183.926Z" fill="white"/>
<path d="M106.286 349.733L91.755 364.264C73.024 350.806 56.713 334.193 43.594 315.21L57.678 301.126C65.149 293.648 77.267 293.655 84.737 301.126L106.285 322.674C113.764 330.144 113.764 342.262 106.286 349.733Z" fill="white"/>
<path d="M241.547 378.802V399.37C230.957 401.106 220.085 402 209.005 402C196.642 402 184.539 400.883 172.796 398.744V378.802C172.796 368.233 181.369 359.668 191.931 359.668H222.405C232.981 359.668 241.547 368.234 241.547 378.802Z" fill="white"/>
<path d="M372.269 318.25C358.811 336.974 342.198 353.292 323.215 366.411L309.131 352.326C301.653 344.855 301.66 332.738 309.131 325.267L330.679 303.719C338.15 296.241 350.268 296.241 357.738 303.719L372.269 318.25Z" fill="white"/>
<path d="M410.005 201C410.005 213.363 408.888 225.466 406.749 237.209H386.808C376.239 237.209 367.673 228.636 367.673 218.075V187.6C367.673 177.024 376.239 168.458 386.808 168.458H407.383C409.112 179.049 410.005 189.92 410.005 201Z" fill="white"/>
<path d="M374.423 86.783L360.332 100.875C352.861 108.353 340.743 108.346 333.273 100.875L311.725 79.327C304.247 71.856 304.247 59.738 311.725 52.268L326.263 37.73C344.979 51.194 361.29 67.807 374.423 86.783Z" fill="white"/>
<path d="M126.472 93.9277L103.318 116.548L104.86 118.127L128.014 95.5064L126.472 93.9277Z" fill="white"/>
<path d="M83.959 149.497L75.2191 180.663L77.3439 181.259L86.0838 150.093L83.959 149.497Z" fill="white"/>
<path d="M75.0228 218.886L83.0376 250.249L85.176 249.702L77.1612 218.339L75.0228 218.886Z" fill="white"/>
<path d="M101.937 283.541L124.557 306.695L126.136 305.153L103.516 281.999L101.937 283.541Z" fill="white"/>
<path d="M157.475 325.971L188.644 334.711L189.24 332.586L158.071 323.846L157.475 325.971Z" fill="white"/>
<path d="M226.88 334.986L258.244 326.971L257.697 324.833L226.334 332.847L226.88 334.986Z" fill="white"/>
<path d="M291.542 308.063L314.696 285.443L313.154 283.865L290 306.485L291.542 308.063Z" fill="white"/>
<path d="M333.985 252.533L342.725 221.364L340.6 220.768L331.86 251.937L333.985 252.533Z" fill="white"/>
<path d="M342.998 183.121L334.983 151.757L332.845 152.304L340.86 183.667L342.998 183.121Z" fill="white"/>
<path d="M316.071 118.47L293.451 95.3157L291.872 96.8579L314.493 120.012L316.071 118.47Z" fill="white"/>
<path d="M260.528 76.0145L229.359 67.2746L228.763 69.3997L259.932 78.1396L260.528 76.0145Z" fill="white"/>
<path d="M191.12 67.009L159.757 75.0238L160.303 77.1622L191.666 69.1474L191.12 67.009Z" fill="white"/>
<path d="M297.636 289.636C346.59 240.682 346.59 161.312 297.636 112.359C248.683 63.4049 169.313 63.4049 120.359 112.359C71.4058 161.312 71.4057 240.682 120.359 289.636C169.313 338.589 248.683 338.589 297.636 289.636Z" fill="white"/>
<path d="M221.367 154.909V248H210.094V166.727H209.549L186.821 181.818V170.364L210.094 154.909H221.367Z" fill="#008E05"/>
</g>
<defs>
<filter id="filter0_d_1_75" x="0.00402832" y="0" width="418.001" height="418.001" filterUnits="userSpaceOnUse" color-interpolation-filters="sRGB">
<feFlood flood-opacity="0" result="BackgroundImageFix"/>
<feColorMatrix in="SourceAlpha" type="matrix" values="0 0 0 0 0 0 0 0 0 0 0 0 0 0 0 0 0 0 127 0" result="hardAlpha"/>
<feOffset dy="8"/>
<feGaussianBlur stdDeviation="4"/>
<feComposite in2="hardAlpha" operator="out"/>
<feColorMatrix type="matrix" values="0 0 0 0 0 0 0 0 0 0 0 0 0 0 0 0 0 0 0.25 0"/>
<feBlend mode="normal" in2="BackgroundImageFix" result="effect1_dropShadow_1_75"/>
<feBlend mode="normal" in="SourceGraphic" in2="effect1_dropShadow_1_75" result="shape"/>
</filter>
</defs>
</svg>
