<svg width="418" height="418" viewBox="0 0 418 418" fill="none" xmlns="http://www.w3.org/2000/svg">
<g filter="url(#filter0_d_1_117)">
<path d="M410.007 201.001C410.007 213.364 408.89 225.467 406.751 237.21C401.326 267.036 389.317 294.571 372.271 318.251C358.813 336.975 342.2 353.293 323.217 366.412C299.256 382.996 271.519 394.501 241.549 399.372C230.959 401.108 220.087 402.002 209.007 402.002C196.644 402.002 184.541 400.885 172.798 398.746C142.965 393.321 115.43 381.311 91.757 364.266C73.026 350.808 56.715 334.195 43.596 315.212C27.012 291.251 15.506 263.507 10.636 233.544C8.90005 222.953 8.00604 212.082 8.00604 201.002C8.00604 188.639 9.12305 176.536 11.262 164.793C16.687 134.952 28.696 107.418 45.735 83.745C59.2 65.021 75.813 48.71 94.789 35.584C118.57 19.129 146.069 7.67399 175.78 2.73199C176.01 2.69599 176.234 2.65996 176.464 2.62396C187.054 0.901962 197.926 0.00195312 209.006 0.00195312C220.331 0.00195312 231.426 0.937995 242.239 2.73199C243.233 2.89799 244.228 3.06998 245.215 3.25098C275.048 8.67598 302.583 20.693 326.263 37.731C344.98 51.196 361.29 67.809 374.424 86.785C391.001 110.746 402.507 138.498 407.384 168.46C409.114 179.05 410.007 189.921 410.007 201.001Z" fill="#008E05"/>
<path d="M245.216 3.25V23.199C245.216 33.768 236.643 42.3329 226.081 42.3329H195.607C185.031 42.3329 176.465 33.767 176.465 23.199V2.62299C187.055 0.900986 197.927 0.000976562 209.007 0.000976562C220.332 0.000976562 231.427 0.936957 242.24 2.73096C243.235 2.89696 244.229 3.07 245.216 3.25Z" fill="white"/>
<path d="M108.882 76.734L87.3341 98.282C79.8631 105.76 67.7461 105.76 60.2751 98.282L45.7371 83.744C59.2021 65.02 75.8151 48.709 94.7911 35.583L108.883 49.675C116.36 57.146 116.353 69.264 108.882 76.734Z" fill="white"/>
<path d="M50.34 183.927V214.401C50.34 224.977 41.7741 233.543 31.2051 233.543H10.6371C8.90105 222.952 8.00705 212.081 8.00705 201.001C8.00705 188.638 9.12405 176.535 11.2631 164.792H31.2051C41.7741 164.793 50.34 173.366 50.34 183.927Z" fill="white"/>
<path d="M106.288 349.734L91.7571 364.265C73.0261 350.807 56.7151 334.194 43.5961 315.211L57.68 301.127C65.151 293.649 77.2691 293.656 84.7391 301.127L106.287 322.675C113.766 330.145 113.766 342.263 106.288 349.734Z" fill="white"/>
<path d="M241.549 378.803V399.371C230.959 401.107 220.087 402.001 209.007 402.001C196.644 402.001 184.541 400.884 172.798 398.745V378.803C172.798 368.234 181.371 359.669 191.933 359.669H222.407C232.983 359.669 241.549 368.235 241.549 378.803Z" fill="white"/>
<path d="M372.271 318.251C358.813 336.975 342.2 353.293 323.217 366.412L309.133 352.327C301.655 344.856 301.662 332.739 309.133 325.268L330.681 303.72C338.152 296.242 350.27 296.242 357.74 303.72L372.271 318.251Z" fill="white"/>
<path d="M410.007 201.001C410.007 213.364 408.89 225.467 406.751 237.21H386.81C376.241 237.21 367.675 228.637 367.675 218.076V187.601C367.675 177.025 376.241 168.459 386.81 168.459H407.385C409.114 179.05 410.007 189.921 410.007 201.001Z" fill="white"/>
<path d="M374.425 86.784L360.334 100.876C352.863 108.354 340.745 108.347 333.275 100.876L311.727 79.328C304.249 71.857 304.249 59.739 311.727 52.269L326.265 37.731C344.981 51.195 361.292 67.808 374.425 86.784Z" fill="white"/>
<path d="M126.474 93.9287L103.32 116.549L104.862 118.128L128.016 95.5074L126.474 93.9287Z" fill="white"/>
<path d="M83.961 149.498L75.2211 180.664L77.3459 181.26L86.0858 150.094L83.961 149.498Z" fill="white"/>
<path d="M75.0248 218.886L83.0397 250.25L85.178 249.703L77.1632 218.34L75.0248 218.886Z" fill="white"/>
<path d="M101.939 283.542L124.559 306.696L126.138 305.154L103.518 282L101.939 283.542Z" fill="white"/>
<path d="M157.477 325.972L188.646 334.712L189.242 332.587L158.073 323.847L157.477 325.972Z" fill="white"/>
<path d="M226.882 334.987L258.246 326.972L257.699 324.834L226.336 332.848L226.882 334.987Z" fill="white"/>
<path d="M291.544 308.064L314.698 285.444L313.156 283.866L290.002 306.486L291.544 308.064Z" fill="white"/>
<path d="M333.987 252.534L342.727 221.365L340.602 220.769L331.862 251.938L333.987 252.534Z" fill="white"/>
<path d="M343 183.122L334.985 151.758L332.847 152.305L340.862 183.668L343 183.122Z" fill="white"/>
<path d="M316.073 118.471L293.453 95.3167L291.875 96.8589L314.495 120.013L316.073 118.471Z" fill="white"/>
<path d="M260.53 76.0155L229.361 67.2756L228.765 69.4007L259.934 78.1406L260.53 76.0155Z" fill="white"/>
<path d="M191.122 67.01L159.759 75.0248L160.305 77.1632L191.668 69.1483L191.122 67.01Z" fill="white"/>
<path d="M297.638 289.637C346.592 240.683 346.592 161.313 297.638 112.36C248.685 63.4059 169.315 63.4059 120.361 112.36C71.4078 161.313 71.4077 240.683 120.361 289.637C169.315 338.59 248.685 338.59 297.638 289.637Z" fill="white"/>
<path d="M184.549 248L226.186 165.636V164.909H178.186V154.909H237.822V165.455L196.368 248H184.549Z" fill="#008E05"/>
</g>
<defs>
<filter id="filter0_d_1_117" x="0.00604248" y="0.000976562" width="418.001" height="418.001" filterUnits="userSpaceOnUse" color-interpolation-filters="sRGB">
<feFlood flood-opacity="0" result="BackgroundImageFix"/>
<feColorMatrix in="SourceAlpha" type="matrix" values="0 0 0 0 0 0 0 0 0 0 0 0 0 0 0 0 0 0 127 0" result="hardAlpha"/>
<feOffset dy="8"/>
<feGaussianBlur stdDeviation="4"/>
<feComposite in2="hardAlpha" operator="out"/>
<feColorMatrix type="matrix" values="0 0 0 0 0 0 0 0 0 0 0 0 0 0 0 0 0 0 0.25 0"/>
<feBlend mode="normal" in2="BackgroundImageFix" result="effect1_dropShadow_1_117"/>
<feBlend mode="normal" in="SourceGraphic" in2="effect1_dropShadow_1_117" result="shape"/>
</filter>
</defs>
</svg>
