<svg width="418" height="418" viewBox="0 0 418 418" fill="none" xmlns="http://www.w3.org/2000/svg">
<g filter="url(#filter0_d_1_316)">
<path d="M410.005 201.004C410.005 213.367 408.888 225.47 406.749 237.213C401.324 267.039 389.315 294.574 372.269 318.254C358.811 336.978 342.198 353.296 323.215 366.415C299.254 382.999 271.517 394.504 241.547 399.375C230.957 401.111 220.085 402.005 209.005 402.005C196.642 402.005 184.539 400.888 172.796 398.749C142.963 393.324 115.428 381.314 91.755 364.269C73.024 350.811 56.713 334.198 43.594 315.215C27.01 291.254 15.504 263.51 10.634 233.547C8.89803 222.956 8.00403 212.085 8.00403 201.005C8.00403 188.642 9.12103 176.539 11.26 164.796C16.685 134.955 28.694 107.421 45.733 83.7479C59.198 65.0239 75.811 48.7129 94.787 35.5869C118.568 19.1319 146.067 7.67692 175.778 2.73492C176.008 2.69892 176.232 2.66289 176.462 2.62689C187.052 0.904892 197.924 0.00488281 209.004 0.00488281C220.329 0.00488281 231.424 0.940924 242.237 2.73492C243.231 2.90092 244.226 3.07291 245.213 3.25391C275.046 8.67891 302.581 20.6959 326.261 37.7339C344.978 51.1989 361.288 67.8119 374.422 86.7879C390.999 110.749 402.505 138.501 407.382 168.463C409.112 179.053 410.005 189.924 410.005 201.004Z" fill="url(#paint0_linear_1_316)"/>
<path d="M245.214 3.25293V23.2019C245.214 33.7709 236.641 42.3359 226.079 42.3359H195.605C185.029 42.3359 176.463 33.7699 176.463 23.2019V2.62592C187.053 0.903916 197.925 0.00390625 209.005 0.00390625C220.33 0.00390625 231.425 0.939887 242.238 2.73389C243.233 2.89989 244.227 3.07293 245.214 3.25293Z" fill="white"/>
<path d="M108.88 76.7369L87.332 98.285C79.861 105.763 67.744 105.763 60.273 98.285L45.735 83.7469C59.2 65.0229 75.813 48.7119 94.789 35.5859L108.881 49.678C116.358 57.149 116.351 69.2669 108.88 76.7369Z" fill="white"/>
<path d="M50.338 183.93V214.404C50.338 224.98 41.772 233.546 31.203 233.546H10.635C8.89901 222.955 8.005 212.084 8.005 201.004C8.005 188.641 9.12201 176.538 11.261 164.795H31.203C41.772 164.796 50.338 173.369 50.338 183.93Z" fill="white"/>
<path d="M106.286 349.737L91.755 364.268C73.024 350.81 56.713 334.197 43.594 315.214L57.678 301.13C65.149 293.652 77.267 293.659 84.737 301.13L106.285 322.678C113.764 330.148 113.764 342.266 106.286 349.737Z" fill="white"/>
<path d="M241.547 378.806V399.374C230.957 401.11 220.085 402.004 209.005 402.004C196.642 402.004 184.539 400.887 172.796 398.748V378.806C172.796 368.237 181.369 359.672 191.931 359.672H222.405C232.981 359.672 241.547 368.238 241.547 378.806Z" fill="white"/>
<path d="M372.269 318.254C358.811 336.978 342.198 353.296 323.215 366.415L309.131 352.33C301.653 344.859 301.66 332.742 309.131 325.271L330.679 303.723C338.15 296.245 350.268 296.245 357.738 303.723L372.269 318.254Z" fill="white"/>
<path d="M410.005 201.004C410.005 213.367 408.888 225.47 406.749 237.213H386.808C376.239 237.213 367.673 228.64 367.673 218.079V187.604C367.673 177.028 376.239 168.462 386.808 168.462H407.383C409.112 179.053 410.005 189.924 410.005 201.004Z" fill="white"/>
<path d="M374.423 86.7869L360.332 100.879C352.861 108.357 340.743 108.35 333.273 100.879L311.725 79.3309C304.247 71.8599 304.247 59.7419 311.725 52.2719L326.263 37.7339C344.979 51.1979 361.29 67.8109 374.423 86.7869Z" fill="white"/>
<path d="M126.472 93.9316L103.318 116.552L104.86 118.13L128.014 95.5103L126.472 93.9316Z" fill="white"/>
<path d="M83.959 149.501L75.2191 180.667L77.3439 181.263L86.0838 150.097L83.959 149.501Z" fill="white"/>
<path d="M75.0228 218.889L83.0376 250.253L85.176 249.706L77.1612 218.343L75.0228 218.889Z" fill="white"/>
<path d="M101.937 283.545L124.557 306.699L126.136 305.157L103.516 282.003L101.937 283.545Z" fill="white"/>
<path d="M157.475 325.975L188.644 334.715L189.24 332.59L158.071 323.85L157.475 325.975Z" fill="white"/>
<path d="M226.88 334.99L258.244 326.975L257.697 324.837L226.334 332.851L226.88 334.99Z" fill="white"/>
<path d="M291.542 308.067L314.696 285.447L313.154 283.869L290 306.489L291.542 308.067Z" fill="white"/>
<path d="M333.985 252.537L342.725 221.368L340.6 220.772L331.86 251.941L333.985 252.537Z" fill="white"/>
<path d="M342.998 183.125L334.983 151.761L332.845 152.308L340.86 183.671L342.998 183.125Z" fill="white"/>
<path d="M316.071 118.474L293.451 95.3196L291.872 96.8619L314.493 120.016L316.071 118.474Z" fill="white"/>
<path d="M260.528 76.0184L229.359 67.2785L228.763 69.4036L259.932 78.1435L260.528 76.0184Z" fill="white"/>
<path d="M191.12 67.0129L159.757 75.0278L160.303 77.1661L191.666 69.1513L191.12 67.0129Z" fill="white"/>
<path d="M297.636 289.639C346.59 240.686 346.59 161.316 297.636 112.362C248.683 63.4088 169.313 63.4088 120.359 112.362C71.4058 161.316 71.4057 240.686 120.359 289.64C169.313 338.593 248.683 338.593 297.636 289.639Z" fill="white"/>
<path d="M208.731 249.276C203.398 249.276 198.595 248.215 194.322 246.094C190.049 243.973 186.625 241.064 184.049 237.367C181.474 233.67 180.065 229.457 179.822 224.73H190.731C191.156 228.942 193.065 232.427 196.459 235.185C199.883 237.912 203.974 239.276 208.731 239.276C212.549 239.276 215.943 238.382 218.913 236.594C221.913 234.806 224.262 232.351 225.959 229.23C227.686 226.079 228.549 222.518 228.549 218.548C228.549 214.488 227.656 210.867 225.868 207.685C224.11 204.473 221.686 201.942 218.595 200.094C215.504 198.245 211.974 197.306 208.004 197.276C205.156 197.245 202.231 197.685 199.231 198.594C196.231 199.473 193.762 200.609 191.822 202.003L181.277 200.73L186.913 154.912H235.277V164.912H196.368L193.095 192.367H193.64C195.549 190.851 197.943 189.594 200.822 188.594C203.701 187.594 206.701 187.094 209.822 187.094C215.519 187.094 220.595 188.457 225.049 191.185C229.534 193.882 233.049 197.579 235.595 202.276C238.171 206.973 239.459 212.336 239.459 218.367C239.459 224.306 238.125 229.609 235.459 234.276C232.822 238.912 229.186 242.579 224.549 245.276C219.913 247.942 214.64 249.276 208.731 249.276Z" fill="url(#paint1_linear_1_316)"/>
</g>
<defs>
<filter id="filter0_d_1_316" x="0.00402832" y="0.00390625" width="418.001" height="418.001" filterUnits="userSpaceOnUse" color-interpolation-filters="sRGB">
<feFlood flood-opacity="0" result="BackgroundImageFix"/>
<feColorMatrix in="SourceAlpha" type="matrix" values="0 0 0 0 0 0 0 0 0 0 0 0 0 0 0 0 0 0 127 0" result="hardAlpha"/>
<feOffset dy="8"/>
<feGaussianBlur stdDeviation="4"/>
<feComposite in2="hardAlpha" operator="out"/>
<feColorMatrix type="matrix" values="0 0 0 0 0 0 0 0 0 0 0 0 0 0 0 0 0 0 0.25 0"/>
<feBlend mode="normal" in2="BackgroundImageFix" result="effect1_dropShadow_1_316"/>
<feBlend mode="normal" in="SourceGraphic" in2="effect1_dropShadow_1_316" result="shape"/>
</filter>
<linearGradient id="paint0_linear_1_316" x1="209.005" y1="0.00488281" x2="209.005" y2="402.005" gradientUnits="userSpaceOnUse">
<stop stop-color="#008E05"/>
<stop offset="1" stop-color="#B500D1"/>
</linearGradient>
<linearGradient id="paint1_linear_1_316" x1="209.004" y1="155.003" x2="209.004" y2="248.003" gradientUnits="userSpaceOnUse">
<stop stop-color="#008E05"/>
<stop offset="1" stop-color="#B500D1"/>
</linearGradient>
</defs>
</svg>
