<svg width="418" height="418" viewBox="0 0 418 418" fill="none" xmlns="http://www.w3.org/2000/svg">
<g filter="url(#filter0_d_1_11)">
<path d="M410.002 201C410.002 213.363 408.885 225.466 406.746 237.209C401.321 267.035 389.312 294.57 372.266 318.25C358.808 336.974 342.195 353.292 323.212 366.411C299.251 382.995 271.514 394.5 241.544 399.371C230.954 401.107 220.082 402.001 209.002 402.001C196.639 402.001 184.536 400.884 172.793 398.745C142.96 393.32 115.425 381.31 91.752 364.265C73.021 350.807 56.71 334.194 43.591 315.211C27.007 291.25 15.501 263.506 10.631 233.543C8.89498 222.952 8.00098 212.081 8.00098 201.001C8.00098 188.638 9.11798 176.535 11.257 164.792C16.682 134.951 28.691 107.417 45.73 83.744C59.195 65.02 75.808 48.709 94.784 35.583C118.565 19.128 146.064 7.67302 175.775 2.73102C176.005 2.69502 176.229 2.65899 176.459 2.62299C187.049 0.900986 197.921 0.000976562 209.001 0.000976562C220.326 0.000976562 231.421 0.937018 242.234 2.73102C243.228 2.89702 244.223 3.069 245.21 3.25C275.043 8.675 302.578 20.692 326.258 37.73C344.975 51.195 361.285 67.808 374.419 86.784C390.996 110.745 402.502 138.497 407.379 168.459C409.109 179.049 410.002 189.92 410.002 201Z" fill="#FF0900"/>
<path d="M245.211 3.24902V23.198C245.211 33.767 236.638 42.332 226.076 42.332H195.602C185.026 42.332 176.46 33.766 176.46 23.198V2.62201C187.05 0.900009 197.922 0 209.002 0C220.327 0 231.422 0.93598 242.235 2.72998C243.23 2.89598 244.224 3.06902 245.211 3.24902Z" fill="white"/>
<path d="M108.877 76.733L87.329 98.2811C79.858 105.759 67.741 105.759 60.27 98.2811L45.732 83.743C59.197 65.019 75.81 48.708 94.786 35.582L108.878 49.6741C116.355 57.1451 116.348 69.263 108.877 76.733Z" fill="white"/>
<path d="M50.335 183.926V214.4C50.335 224.976 41.769 233.542 31.2 233.542H10.632C8.89596 222.951 8.00195 212.08 8.00195 201C8.00195 188.637 9.11896 176.534 11.258 164.791H31.2C41.769 164.792 50.335 173.365 50.335 183.926Z" fill="white"/>
<path d="M106.283 349.733L91.752 364.264C73.021 350.806 56.71 334.193 43.591 315.21L57.6749 301.126C65.146 293.648 77.264 293.655 84.734 301.126L106.282 322.674C113.761 330.144 113.761 342.262 106.283 349.733Z" fill="white"/>
<path d="M241.544 378.802V399.37C230.954 401.106 220.082 402 209.002 402C196.639 402 184.536 400.883 172.793 398.744V378.802C172.793 368.233 181.366 359.668 191.928 359.668H222.402C232.978 359.668 241.544 368.234 241.544 378.802Z" fill="white"/>
<path d="M372.266 318.25C358.808 336.974 342.195 353.292 323.212 366.411L309.128 352.326C301.65 344.855 301.657 332.738 309.128 325.267L330.676 303.719C338.147 296.241 350.265 296.241 357.735 303.719L372.266 318.25Z" fill="white"/>
<path d="M410.002 201C410.002 213.363 408.885 225.466 406.746 237.209H386.805C376.236 237.209 367.67 228.636 367.67 218.075V187.6C367.67 177.024 376.236 168.458 386.805 168.458H407.38C409.109 179.049 410.002 189.92 410.002 201Z" fill="white"/>
<path d="M374.42 86.783L360.329 100.875C352.858 108.353 340.74 108.346 333.27 100.875L311.722 79.327C304.244 71.856 304.244 59.738 311.722 52.268L326.26 37.73C344.976 51.194 361.287 67.807 374.42 86.783Z" fill="white"/>
<path d="M126.469 93.9277L103.315 116.548L104.857 118.127L128.011 95.5064L126.469 93.9277Z" fill="white"/>
<path d="M83.9559 149.497L75.216 180.663L77.3409 181.259L86.0808 150.093L83.9559 149.497Z" fill="white"/>
<path d="M75.0198 218.886L83.0346 250.249L85.173 249.702L77.1582 218.339L75.0198 218.886Z" fill="white"/>
<path d="M101.934 283.541L124.554 306.695L126.133 305.153L103.513 281.999L101.934 283.541Z" fill="white"/>
<path d="M157.472 325.971L188.641 334.711L189.237 332.586L158.068 323.846L157.472 325.971Z" fill="white"/>
<path d="M226.877 334.986L258.241 326.971L257.694 324.833L226.331 332.847L226.877 334.986Z" fill="white"/>
<path d="M291.539 308.063L314.693 285.443L313.151 283.865L289.997 306.485L291.539 308.063Z" fill="white"/>
<path d="M333.982 252.533L342.722 221.364L340.597 220.768L331.857 251.937L333.982 252.533Z" fill="white"/>
<path d="M342.995 183.121L334.98 151.757L332.842 152.304L340.857 183.667L342.995 183.121Z" fill="white"/>
<path d="M316.068 118.47L293.448 95.3157L291.869 96.8579L314.49 120.012L316.068 118.47Z" fill="white"/>
<path d="M260.525 76.0145L229.356 67.2746L228.76 69.3997L259.929 78.1396L260.525 76.0145Z" fill="white"/>
<path d="M191.117 67.009L159.754 75.0238L160.3 77.1622L191.663 69.1474L191.117 67.009Z" fill="white"/>
<path d="M297.633 289.636C346.587 240.682 346.587 161.312 297.633 112.359C248.68 63.4049 169.31 63.4049 120.356 112.359C71.4027 161.312 71.4027 240.682 120.356 289.636C169.31 338.589 248.68 338.589 297.633 289.636Z" fill="white"/>
<path d="M179.636 248V239.818L210.364 206.182C213.97 202.242 216.939 198.818 219.273 195.909C221.606 192.97 223.333 190.212 224.455 187.636C225.606 185.03 226.182 182.303 226.182 179.455C226.182 176.182 225.394 173.348 223.818 170.955C222.273 168.561 220.152 166.712 217.455 165.409C214.758 164.106 211.727 163.455 208.364 163.455C204.788 163.455 201.667 164.197 199 165.682C196.364 167.136 194.318 169.182 192.864 171.818C191.439 174.455 190.727 177.545 190.727 181.091H180C180 175.636 181.258 170.848 183.773 166.727C186.288 162.606 189.712 159.394 194.045 157.091C198.409 154.788 203.303 153.636 208.727 153.636C214.182 153.636 219.015 154.788 223.227 157.091C227.439 159.394 230.742 162.5 233.136 166.409C235.53 170.318 236.727 174.667 236.727 179.455C236.727 182.879 236.106 186.227 234.864 189.5C233.652 192.742 231.53 196.364 228.5 200.364C225.5 204.333 221.333 209.182 216 214.909L195.091 237.273V238H238.364V248H179.636Z" fill="#FF0900"/>
</g>
<defs>
<filter id="filter0_d_1_11" x="0.000976562" y="0" width="418.001" height="418.001" filterUnits="userSpaceOnUse" color-interpolation-filters="sRGB">
<feFlood flood-opacity="0" result="BackgroundImageFix"/>
<feColorMatrix in="SourceAlpha" type="matrix" values="0 0 0 0 0 0 0 0 0 0 0 0 0 0 0 0 0 0 127 0" result="hardAlpha"/>
<feOffset dy="8"/>
<feGaussianBlur stdDeviation="4"/>
<feComposite in2="hardAlpha" operator="out"/>
<feColorMatrix type="matrix" values="0 0 0 0 0 0 0 0 0 0 0 0 0 0 0 0 0 0 0.25 0"/>
<feBlend mode="normal" in2="BackgroundImageFix" result="effect1_dropShadow_1_11"/>
<feBlend mode="normal" in="SourceGraphic" in2="effect1_dropShadow_1_11" result="shape"/>
</filter>
</defs>
</svg>
