<svg width="418" height="418" viewBox="0 0 418 418" fill="none" xmlns="http://www.w3.org/2000/svg">
<g filter="url(#filter0_d_1_39)">
<path d="M410.002 201.001C410.002 213.364 408.885 225.467 406.746 237.21C401.321 267.036 389.312 294.571 372.266 318.251C358.808 336.975 342.195 353.293 323.212 366.412C299.251 382.996 271.514 394.501 241.544 399.372C230.954 401.108 220.082 402.002 209.002 402.002C196.639 402.002 184.536 400.885 172.793 398.746C142.96 393.321 115.425 381.311 91.752 364.266C73.021 350.808 56.71 334.195 43.591 315.212C27.007 291.251 15.501 263.507 10.631 233.544C8.89498 222.953 8.00098 212.082 8.00098 201.002C8.00098 188.639 9.11798 176.536 11.257 164.793C16.682 134.952 28.691 107.418 45.73 83.745C59.195 65.021 75.808 48.71 94.784 35.584C118.565 19.129 146.064 7.67399 175.775 2.73199C176.005 2.69599 176.229 2.65996 176.459 2.62396C187.049 0.901962 197.921 0.00195312 209.001 0.00195312C220.326 0.00195312 231.421 0.937995 242.234 2.73199C243.228 2.89799 244.223 3.06998 245.21 3.25098C275.043 8.67598 302.578 20.693 326.258 37.731C344.975 51.196 361.285 67.809 374.419 86.785C390.996 110.746 402.502 138.498 407.379 168.46C409.109 179.05 410.002 189.921 410.002 201.001Z" fill="#FF0900"/>
<path d="M245.211 3.25V23.199C245.211 33.768 236.638 42.3329 226.076 42.3329H195.602C185.026 42.3329 176.46 33.767 176.46 23.199V2.62299C187.05 0.900986 197.922 0.000976562 209.002 0.000976562C220.327 0.000976562 231.422 0.936957 242.235 2.73096C243.23 2.89696 244.224 3.07 245.211 3.25Z" fill="white"/>
<path d="M108.877 76.734L87.329 98.282C79.858 105.76 67.741 105.76 60.27 98.282L45.732 83.744C59.197 65.02 75.81 48.709 94.786 35.583L108.878 49.675C116.355 57.146 116.348 69.264 108.877 76.734Z" fill="white"/>
<path d="M50.335 183.927V214.401C50.335 224.977 41.769 233.543 31.2 233.543H10.632C8.89596 222.952 8.00195 212.081 8.00195 201.001C8.00195 188.638 9.11896 176.535 11.258 164.792H31.2C41.769 164.793 50.335 173.366 50.335 183.927Z" fill="white"/>
<path d="M106.283 349.734L91.752 364.265C73.021 350.807 56.71 334.194 43.591 315.211L57.6749 301.127C65.146 293.649 77.264 293.656 84.734 301.127L106.282 322.675C113.761 330.145 113.761 342.263 106.283 349.734Z" fill="white"/>
<path d="M241.544 378.803V399.371C230.954 401.107 220.082 402.001 209.002 402.001C196.639 402.001 184.536 400.884 172.793 398.745V378.803C172.793 368.234 181.366 359.669 191.928 359.669H222.402C232.978 359.669 241.544 368.235 241.544 378.803Z" fill="white"/>
<path d="M372.266 318.251C358.808 336.975 342.195 353.293 323.212 366.412L309.128 352.327C301.65 344.856 301.657 332.739 309.128 325.268L330.676 303.72C338.147 296.242 350.265 296.242 357.735 303.72L372.266 318.251Z" fill="white"/>
<path d="M410.002 201.001C410.002 213.364 408.885 225.467 406.746 237.21H386.805C376.236 237.21 367.67 228.637 367.67 218.076V187.601C367.67 177.025 376.236 168.459 386.805 168.459H407.38C409.109 179.05 410.002 189.921 410.002 201.001Z" fill="white"/>
<path d="M374.42 86.784L360.329 100.876C352.858 108.354 340.74 108.347 333.27 100.876L311.722 79.328C304.244 71.857 304.244 59.739 311.722 52.269L326.26 37.731C344.976 51.195 361.287 67.808 374.42 86.784Z" fill="white"/>
<path d="M126.469 93.9287L103.315 116.549L104.857 118.128L128.011 95.5074L126.469 93.9287Z" fill="white"/>
<path d="M83.9559 149.498L75.216 180.664L77.3409 181.26L86.0808 150.094L83.9559 149.498Z" fill="white"/>
<path d="M75.0198 218.886L83.0346 250.25L85.173 249.703L77.1582 218.34L75.0198 218.886Z" fill="white"/>
<path d="M101.934 283.542L124.554 306.696L126.133 305.154L103.513 282L101.934 283.542Z" fill="white"/>
<path d="M157.472 325.972L188.641 334.712L189.237 332.587L158.068 323.847L157.472 325.972Z" fill="white"/>
<path d="M226.877 334.987L258.241 326.972L257.694 324.834L226.331 332.848L226.877 334.987Z" fill="white"/>
<path d="M291.539 308.064L314.693 285.444L313.151 283.866L289.997 306.486L291.539 308.064Z" fill="white"/>
<path d="M333.982 252.534L342.722 221.365L340.597 220.769L331.857 251.938L333.982 252.534Z" fill="white"/>
<path d="M342.995 183.122L334.98 151.758L332.842 152.305L340.857 183.668L342.995 183.122Z" fill="white"/>
<path d="M316.068 118.471L293.448 95.3167L291.869 96.8589L314.49 120.013L316.068 118.471Z" fill="white"/>
<path d="M260.525 76.0155L229.356 67.2756L228.76 69.4007L259.929 78.1406L260.525 76.0155Z" fill="white"/>
<path d="M191.117 67.01L159.754 75.0248L160.3 77.1632L191.663 69.1483L191.117 67.01Z" fill="white"/>
<path d="M297.633 289.637C346.587 240.683 346.587 161.313 297.633 112.36C248.68 63.4059 169.31 63.4059 120.356 112.36C71.4027 161.313 71.4027 240.683 120.356 289.637C169.31 338.59 248.68 338.59 297.633 289.637Z" fill="white"/>
<path d="M209.545 249.273C205.727 249.212 201.909 248.485 198.091 247.091C194.273 245.697 190.788 243.348 187.636 240.045C184.485 236.712 181.955 232.212 180.045 226.545C178.136 220.848 177.182 213.697 177.182 205.091C177.182 196.848 177.955 189.545 179.5 183.182C181.045 176.788 183.288 171.409 186.227 167.045C189.167 162.652 192.712 159.318 196.864 157.045C201.045 154.773 205.758 153.636 211 153.636C216.212 153.636 220.848 154.682 224.909 156.773C229 158.833 232.333 161.712 234.909 165.409C237.485 169.106 239.152 173.364 239.909 178.182H228.818C227.788 174 225.788 170.53 222.818 167.773C219.848 165.015 215.909 163.636 211 163.636C203.788 163.636 198.106 166.773 193.955 173.045C189.833 179.318 187.758 188.121 187.727 199.455H188.455C190.152 196.879 192.167 194.682 194.5 192.864C196.864 191.015 199.47 189.591 202.318 188.591C205.167 187.591 208.182 187.091 211.364 187.091C216.697 187.091 221.576 188.424 226 191.091C230.424 193.727 233.97 197.379 236.636 202.045C239.303 206.682 240.636 212 240.636 218C240.636 223.758 239.348 229.03 236.773 233.818C234.197 238.576 230.576 242.364 225.909 245.182C221.273 247.97 215.818 249.333 209.545 249.273ZM209.545 239.273C213.364 239.273 216.788 238.318 219.818 236.409C222.879 234.5 225.288 231.939 227.045 228.727C228.833 225.515 229.727 221.939 229.727 218C229.727 214.152 228.864 210.652 227.136 207.5C225.439 204.318 223.091 201.788 220.091 199.909C217.121 198.03 213.727 197.091 209.909 197.091C207.03 197.091 204.348 197.667 201.864 198.818C199.379 199.939 197.197 201.485 195.318 203.455C193.47 205.424 192.015 207.682 190.955 210.227C189.894 212.742 189.364 215.394 189.364 218.182C189.364 221.879 190.227 225.333 191.955 228.545C193.712 231.758 196.106 234.348 199.136 236.318C202.197 238.288 205.667 239.273 209.545 239.273Z" fill="#FF0900"/>
</g>
<defs>
<filter id="filter0_d_1_39" x="0.000976562" y="0.000976562" width="418.001" height="418.001" filterUnits="userSpaceOnUse" color-interpolation-filters="sRGB">
<feFlood flood-opacity="0" result="BackgroundImageFix"/>
<feColorMatrix in="SourceAlpha" type="matrix" values="0 0 0 0 0 0 0 0 0 0 0 0 0 0 0 0 0 0 127 0" result="hardAlpha"/>
<feOffset dy="8"/>
<feGaussianBlur stdDeviation="4"/>
<feComposite in2="hardAlpha" operator="out"/>
<feColorMatrix type="matrix" values="0 0 0 0 0 0 0 0 0 0 0 0 0 0 0 0 0 0 0.25 0"/>
<feBlend mode="normal" in2="BackgroundImageFix" result="effect1_dropShadow_1_39"/>
<feBlend mode="normal" in="SourceGraphic" in2="effect1_dropShadow_1_39" result="shape"/>
</filter>
</defs>
</svg>
