<svg width="418" height="418" viewBox="0 0 418 418" fill="none" xmlns="http://www.w3.org/2000/svg">
<g filter="url(#filter0_d_1_25)">
<path d="M410.004 201C410.004 213.363 408.887 225.466 406.748 237.209C401.323 267.035 389.314 294.57 372.268 318.25C358.81 336.974 342.197 353.292 323.214 366.411C299.253 382.995 271.516 394.5 241.546 399.371C230.956 401.107 220.084 402.001 209.004 402.001C196.641 402.001 184.538 400.884 172.795 398.745C142.962 393.32 115.427 381.31 91.7541 364.265C73.0231 350.807 56.7121 334.194 43.5931 315.211C27.0091 291.25 15.5031 263.506 10.6331 233.543C8.89706 222.952 8.00305 212.081 8.00305 201.001C8.00305 188.638 9.12006 176.535 11.2591 164.792C16.6841 134.951 28.6931 107.417 45.7321 83.744C59.1971 65.02 75.8101 48.709 94.7861 35.583C118.567 19.128 146.066 7.67302 175.777 2.73102C176.007 2.69502 176.231 2.65899 176.461 2.62299C187.051 0.900986 197.923 0.000976562 209.003 0.000976562C220.328 0.000976562 231.423 0.937018 242.236 2.73102C243.23 2.89702 244.225 3.069 245.212 3.25C275.045 8.675 302.58 20.692 326.26 37.73C344.977 51.195 361.287 67.808 374.421 86.784C390.998 110.745 402.504 138.497 407.381 168.459C409.111 179.049 410.004 189.92 410.004 201Z" fill="#FF0900"/>
<path d="M245.213 3.24902V23.198C245.213 33.767 236.64 42.332 226.078 42.332H195.604C185.028 42.332 176.462 33.766 176.462 23.198V2.62201C187.052 0.900009 197.924 0 209.004 0C220.329 0 231.424 0.93598 242.237 2.72998C243.232 2.89598 244.226 3.06902 245.213 3.24902Z" fill="white"/>
<path d="M108.879 76.733L87.331 98.2811C79.86 105.759 67.743 105.759 60.272 98.2811L45.734 83.743C59.199 65.019 75.812 48.708 94.788 35.582L108.88 49.6741C116.357 57.1451 116.35 69.263 108.879 76.733Z" fill="white"/>
<path d="M50.337 183.926V214.4C50.337 224.976 41.771 233.542 31.202 233.542H10.634C8.89803 222.951 8.00403 212.08 8.00403 201C8.00403 188.637 9.12103 176.534 11.26 164.791H31.202C41.771 164.792 50.337 173.365 50.337 183.926Z" fill="white"/>
<path d="M106.285 349.733L91.754 364.264C73.023 350.806 56.712 334.193 43.593 315.21L57.677 301.126C65.148 293.648 77.266 293.655 84.736 301.126L106.284 322.674C113.763 330.144 113.763 342.262 106.285 349.733Z" fill="white"/>
<path d="M241.546 378.802V399.37C230.956 401.106 220.084 402 209.004 402C196.641 402 184.538 400.883 172.795 398.744V378.802C172.795 368.233 181.368 359.668 191.93 359.668H222.404C232.98 359.668 241.546 368.234 241.546 378.802Z" fill="white"/>
<path d="M372.268 318.25C358.81 336.974 342.197 353.292 323.214 366.411L309.13 352.326C301.652 344.855 301.659 332.738 309.13 325.267L330.678 303.719C338.149 296.241 350.267 296.241 357.737 303.719L372.268 318.25Z" fill="white"/>
<path d="M410.004 201C410.004 213.363 408.887 225.466 406.748 237.209H386.807C376.238 237.209 367.672 228.636 367.672 218.075V187.6C367.672 177.024 376.238 168.458 386.807 168.458H407.382C409.111 179.049 410.004 189.92 410.004 201Z" fill="white"/>
<path d="M374.422 86.783L360.331 100.875C352.86 108.353 340.742 108.346 333.272 100.875L311.724 79.327C304.246 71.856 304.246 59.738 311.724 52.268L326.262 37.73C344.978 51.194 361.289 67.807 374.422 86.783Z" fill="white"/>
<path d="M126.471 93.9277L103.317 116.548L104.859 118.127L128.013 95.5064L126.471 93.9277Z" fill="white"/>
<path d="M83.958 149.497L75.2181 180.663L77.3429 181.259L86.0828 150.093L83.958 149.497Z" fill="white"/>
<path d="M75.0219 218.886L83.0367 250.249L85.1751 249.702L77.1602 218.339L75.0219 218.886Z" fill="white"/>
<path d="M101.936 283.541L124.556 306.695L126.135 305.153L103.515 281.999L101.936 283.541Z" fill="white"/>
<path d="M157.474 325.971L188.643 334.711L189.239 332.586L158.07 323.846L157.474 325.971Z" fill="white"/>
<path d="M226.879 334.986L258.243 326.971L257.696 324.833L226.333 332.847L226.879 334.986Z" fill="white"/>
<path d="M291.541 308.063L314.695 285.443L313.153 283.865L289.999 306.485L291.541 308.063Z" fill="white"/>
<path d="M333.984 252.533L342.724 221.364L340.599 220.768L331.859 251.937L333.984 252.533Z" fill="white"/>
<path d="M342.997 183.121L334.982 151.757L332.844 152.304L340.859 183.667L342.997 183.121Z" fill="white"/>
<path d="M316.07 118.47L293.45 95.3157L291.872 96.8579L314.492 120.012L316.07 118.47Z" fill="white"/>
<path d="M260.527 76.0145L229.358 67.2746L228.762 69.3997L259.931 78.1396L260.527 76.0145Z" fill="white"/>
<path d="M191.119 67.009L159.756 75.0238L160.302 77.1622L191.665 69.1474L191.119 67.009Z" fill="white"/>
<path d="M297.635 289.636C346.589 240.682 346.589 161.312 297.635 112.359C248.682 63.4049 169.312 63.4049 120.358 112.359C71.4048 161.312 71.4048 240.682 120.358 289.636C169.312 338.589 248.682 338.589 297.635 289.636Z" fill="white"/>
<path d="M175.455 228.909V219.636L216.364 154.909H223.091V169.273H218.545L187.636 218.182V218.909H242.727V228.909H175.455ZM219.273 248V226.091V221.773V154.909H230V248H219.273Z" fill="#FF0900"/>
</g>
<defs>
<filter id="filter0_d_1_25" x="0.00305176" y="0" width="418.001" height="418.001" filterUnits="userSpaceOnUse" color-interpolation-filters="sRGB">
<feFlood flood-opacity="0" result="BackgroundImageFix"/>
<feColorMatrix in="SourceAlpha" type="matrix" values="0 0 0 0 0 0 0 0 0 0 0 0 0 0 0 0 0 0 127 0" result="hardAlpha"/>
<feOffset dy="8"/>
<feGaussianBlur stdDeviation="4"/>
<feComposite in2="hardAlpha" operator="out"/>
<feColorMatrix type="matrix" values="0 0 0 0 0 0 0 0 0 0 0 0 0 0 0 0 0 0 0.25 0"/>
<feBlend mode="normal" in2="BackgroundImageFix" result="effect1_dropShadow_1_25"/>
<feBlend mode="normal" in="SourceGraphic" in2="effect1_dropShadow_1_25" result="shape"/>
</filter>
</defs>
</svg>
