<svg width="418" height="418" viewBox="0 0 418 418" fill="none" xmlns="http://www.w3.org/2000/svg">
<g filter="url(#filter0_d_1_53)">
<path d="M410.004 201.001C410.004 213.364 408.887 225.467 406.748 237.21C401.323 267.036 389.314 294.571 372.268 318.251C358.81 336.975 342.197 353.293 323.214 366.412C299.253 382.996 271.516 394.501 241.546 399.372C230.956 401.108 220.084 402.002 209.004 402.002C196.641 402.002 184.538 400.885 172.795 398.746C142.962 393.321 115.427 381.311 91.7541 364.266C73.0231 350.808 56.7121 334.195 43.5931 315.212C27.0091 291.251 15.5031 263.507 10.6331 233.544C8.89706 222.953 8.00305 212.082 8.00305 201.002C8.00305 188.639 9.12006 176.536 11.2591 164.793C16.6841 134.952 28.6931 107.418 45.7321 83.745C59.1971 65.021 75.8101 48.71 94.7861 35.584C118.567 19.129 146.066 7.67399 175.777 2.73199C176.007 2.69599 176.231 2.65996 176.461 2.62396C187.051 0.901962 197.923 0.00195312 209.003 0.00195312C220.328 0.00195312 231.423 0.937995 242.236 2.73199C243.23 2.89799 244.225 3.06998 245.212 3.25098C275.045 8.67598 302.58 20.693 326.26 37.731C344.977 51.196 361.287 67.809 374.421 86.785C390.998 110.746 402.504 138.498 407.381 168.46C409.111 179.05 410.004 189.921 410.004 201.001Z" fill="#FF0900"/>
<path d="M245.213 3.25V23.199C245.213 33.768 236.64 42.3329 226.078 42.3329H195.604C185.028 42.3329 176.462 33.767 176.462 23.199V2.62299C187.052 0.900986 197.924 0.000976562 209.004 0.000976562C220.329 0.000976562 231.424 0.936957 242.237 2.73096C243.232 2.89696 244.226 3.07 245.213 3.25Z" fill="white"/>
<path d="M108.879 76.734L87.331 98.282C79.86 105.76 67.743 105.76 60.272 98.282L45.734 83.744C59.199 65.02 75.812 48.709 94.788 35.583L108.88 49.675C116.357 57.146 116.35 69.264 108.879 76.734Z" fill="white"/>
<path d="M50.337 183.927V214.401C50.337 224.977 41.771 233.543 31.202 233.543H10.634C8.89803 222.952 8.00403 212.081 8.00403 201.001C8.00403 188.638 9.12103 176.535 11.26 164.792H31.202C41.771 164.793 50.337 173.366 50.337 183.927Z" fill="white"/>
<path d="M106.285 349.734L91.754 364.265C73.023 350.807 56.712 334.194 43.593 315.211L57.677 301.127C65.148 293.649 77.266 293.656 84.736 301.127L106.284 322.675C113.763 330.145 113.763 342.263 106.285 349.734Z" fill="white"/>
<path d="M241.546 378.803V399.371C230.956 401.107 220.084 402.001 209.004 402.001C196.641 402.001 184.538 400.884 172.795 398.745V378.803C172.795 368.234 181.368 359.669 191.93 359.669H222.404C232.98 359.669 241.546 368.235 241.546 378.803Z" fill="white"/>
<path d="M372.268 318.251C358.81 336.975 342.197 353.293 323.214 366.412L309.13 352.327C301.652 344.856 301.659 332.739 309.13 325.268L330.678 303.72C338.149 296.242 350.267 296.242 357.737 303.72L372.268 318.251Z" fill="white"/>
<path d="M410.004 201.001C410.004 213.364 408.887 225.467 406.748 237.21H386.807C376.238 237.21 367.672 228.637 367.672 218.076V187.601C367.672 177.025 376.238 168.459 386.807 168.459H407.382C409.111 179.05 410.004 189.921 410.004 201.001Z" fill="white"/>
<path d="M374.422 86.784L360.331 100.876C352.86 108.354 340.742 108.347 333.272 100.876L311.724 79.328C304.246 71.857 304.246 59.739 311.724 52.269L326.262 37.731C344.978 51.195 361.289 67.808 374.422 86.784Z" fill="white"/>
<path d="M126.471 93.9287L103.317 116.549L104.859 118.128L128.013 95.5074L126.471 93.9287Z" fill="white"/>
<path d="M83.958 149.498L75.2181 180.664L77.3429 181.26L86.0828 150.094L83.958 149.498Z" fill="white"/>
<path d="M75.0219 218.886L83.0367 250.25L85.1751 249.703L77.1602 218.34L75.0219 218.886Z" fill="white"/>
<path d="M101.936 283.542L124.556 306.696L126.135 305.154L103.515 282L101.936 283.542Z" fill="white"/>
<path d="M157.474 325.972L188.643 334.712L189.239 332.587L158.07 323.847L157.474 325.972Z" fill="white"/>
<path d="M226.879 334.987L258.243 326.972L257.696 324.834L226.333 332.848L226.879 334.987Z" fill="white"/>
<path d="M291.541 308.064L314.695 285.444L313.153 283.866L289.999 306.486L291.541 308.064Z" fill="white"/>
<path d="M333.984 252.534L342.724 221.365L340.599 220.769L331.859 251.938L333.984 252.534Z" fill="white"/>
<path d="M342.997 183.122L334.982 151.758L332.844 152.305L340.859 183.668L342.997 183.122Z" fill="white"/>
<path d="M316.07 118.471L293.45 95.3167L291.872 96.8589L314.492 120.013L316.07 118.471Z" fill="white"/>
<path d="M260.527 76.0155L229.358 67.2756L228.762 69.4007L259.931 78.1406L260.527 76.0155Z" fill="white"/>
<path d="M191.119 67.01L159.756 75.0248L160.302 77.1632L191.665 69.1483L191.119 67.01Z" fill="white"/>
<path d="M297.635 289.637C346.589 240.683 346.589 161.313 297.635 112.36C248.682 63.4059 169.312 63.4059 120.358 112.36C71.4048 161.313 71.4048 240.683 120.358 289.637C169.312 338.59 248.682 338.59 297.635 289.637Z" fill="white"/>
<path d="M209.455 249.273C203.212 249.273 197.697 248.167 192.909 245.955C188.152 243.712 184.439 240.636 181.773 236.727C179.106 232.788 177.788 228.303 177.818 223.273C177.788 219.333 178.561 215.697 180.136 212.364C181.712 209 183.864 206.197 186.591 203.955C189.348 201.682 192.424 200.242 195.818 199.636V199.091C191.364 197.939 187.818 195.439 185.182 191.591C182.545 187.712 181.242 183.303 181.273 178.364C181.242 173.636 182.439 169.409 184.864 165.682C187.288 161.955 190.621 159.015 194.864 156.864C199.136 154.712 204 153.636 209.455 153.636C214.848 153.636 219.667 154.712 223.909 156.864C228.152 159.015 231.485 161.955 233.909 165.682C236.364 169.409 237.606 173.636 237.636 178.364C237.606 183.303 236.258 187.712 233.591 191.591C230.955 195.439 227.455 197.939 223.091 199.091V199.636C226.455 200.242 229.485 201.682 232.182 203.955C234.879 206.197 237.03 209 238.636 212.364C240.242 215.697 241.061 219.333 241.091 223.273C241.061 228.303 239.697 232.788 237 236.727C234.333 240.636 230.621 243.712 225.864 245.955C221.136 248.167 215.667 249.273 209.455 249.273ZM209.455 239.273C213.667 239.273 217.303 238.591 220.364 237.227C223.424 235.864 225.788 233.939 227.455 231.455C229.121 228.97 229.97 226.061 230 222.727C229.97 219.212 229.061 216.106 227.273 213.409C225.485 210.712 223.045 208.591 219.955 207.045C216.894 205.5 213.394 204.727 209.455 204.727C205.485 204.727 201.939 205.5 198.818 207.045C195.727 208.591 193.288 210.712 191.5 213.409C189.742 216.106 188.879 219.212 188.909 222.727C188.879 226.061 189.682 228.97 191.318 231.455C192.985 233.939 195.364 235.864 198.455 237.227C201.545 238.591 205.212 239.273 209.455 239.273ZM209.455 195.091C212.788 195.091 215.742 194.424 218.318 193.091C220.924 191.758 222.97 189.894 224.455 187.5C225.939 185.106 226.697 182.303 226.727 179.091C226.697 175.939 225.955 173.197 224.5 170.864C223.045 168.5 221.03 166.682 218.455 165.409C215.879 164.106 212.879 163.455 209.455 163.455C205.97 163.455 202.924 164.106 200.318 165.409C197.712 166.682 195.697 168.5 194.273 170.864C192.848 173.197 192.152 175.939 192.182 179.091C192.152 182.303 192.864 185.106 194.318 187.5C195.803 189.894 197.848 191.758 200.455 193.091C203.061 194.424 206.061 195.091 209.455 195.091Z" fill="#FF0900"/>
</g>
<defs>
<filter id="filter0_d_1_53" x="0.00305176" y="0.000976562" width="418.001" height="418.001" filterUnits="userSpaceOnUse" color-interpolation-filters="sRGB">
<feFlood flood-opacity="0" result="BackgroundImageFix"/>
<feColorMatrix in="SourceAlpha" type="matrix" values="0 0 0 0 0 0 0 0 0 0 0 0 0 0 0 0 0 0 127 0" result="hardAlpha"/>
<feOffset dy="8"/>
<feGaussianBlur stdDeviation="4"/>
<feComposite in2="hardAlpha" operator="out"/>
<feColorMatrix type="matrix" values="0 0 0 0 0 0 0 0 0 0 0 0 0 0 0 0 0 0 0.25 0"/>
<feBlend mode="normal" in2="BackgroundImageFix" result="effect1_dropShadow_1_53"/>
<feBlend mode="normal" in="SourceGraphic" in2="effect1_dropShadow_1_53" result="shape"/>
</filter>
</defs>
</svg>
