<svg width="418" height="418" viewBox="0 0 418 418" fill="none" xmlns="http://www.w3.org/2000/svg">
<g filter="url(#filter0_d_1_280)">
<path d="M410.002 201.005C410.002 213.368 408.885 225.471 406.746 237.214C401.321 267.04 389.312 294.575 372.266 318.255C358.808 336.979 342.195 353.297 323.212 366.416C299.251 383 271.514 394.505 241.544 399.376C230.954 401.112 220.082 402.006 209.002 402.006C196.639 402.006 184.536 400.889 172.793 398.75C142.96 393.325 115.425 381.315 91.752 364.27C73.021 350.812 56.71 334.199 43.591 315.216C27.007 291.255 15.501 263.511 10.631 233.548C8.89498 222.957 8.00098 212.086 8.00098 201.006C8.00098 188.643 9.11798 176.54 11.257 164.797C16.682 134.956 28.691 107.422 45.73 83.7489C59.195 65.0249 75.808 48.7139 94.784 35.5879C118.565 19.1329 146.064 7.6779 175.775 2.7359C176.005 2.6999 176.229 2.66387 176.459 2.62787C187.049 0.905869 197.921 0.00585938 209.001 0.00585938C220.326 0.00585938 231.421 0.941901 242.234 2.7359C243.228 2.9019 244.223 3.07388 245.21 3.25488C275.043 8.67988 302.578 20.6969 326.258 37.7349C344.975 51.1999 361.285 67.8129 374.419 86.7889C390.996 110.75 402.502 138.502 407.379 168.464C409.109 179.054 410.002 189.925 410.002 201.005Z" fill="url(#paint0_linear_1_280)"/>
<path d="M245.211 3.25391V23.2029C245.211 33.7719 236.638 42.3369 226.076 42.3369H195.602C185.026 42.3369 176.46 33.7709 176.46 23.2029V2.62689C187.05 0.904892 197.922 0.00488281 209.002 0.00488281C220.327 0.00488281 231.422 0.940863 242.235 2.73486C243.23 2.90086 244.224 3.07391 245.211 3.25391Z" fill="white"/>
<path d="M108.877 76.7379L87.329 98.2859C79.858 105.764 67.741 105.764 60.27 98.2859L45.732 83.7479C59.197 65.0239 75.81 48.7129 94.786 35.5869L108.878 49.679C116.355 57.15 116.348 69.2679 108.877 76.7379Z" fill="white"/>
<path d="M50.335 183.931V214.405C50.335 224.981 41.769 233.547 31.2 233.547H10.632C8.89596 222.956 8.00195 212.085 8.00195 201.005C8.00195 188.642 9.11896 176.539 11.258 164.796H31.2C41.769 164.797 50.335 173.37 50.335 183.931Z" fill="white"/>
<path d="M106.283 349.738L91.752 364.269C73.021 350.811 56.71 334.198 43.591 315.215L57.6749 301.131C65.146 293.653 77.264 293.66 84.734 301.131L106.282 322.679C113.761 330.149 113.761 342.267 106.283 349.738Z" fill="white"/>
<path d="M241.544 378.807V399.375C230.954 401.111 220.082 402.005 209.002 402.005C196.639 402.005 184.536 400.888 172.793 398.749V378.807C172.793 368.238 181.366 359.673 191.928 359.673H222.402C232.978 359.673 241.544 368.239 241.544 378.807Z" fill="white"/>
<path d="M372.266 318.255C358.808 336.979 342.195 353.297 323.212 366.416L309.128 352.331C301.65 344.86 301.657 332.743 309.128 325.272L330.676 303.724C338.147 296.246 350.265 296.246 357.735 303.724L372.266 318.255Z" fill="white"/>
<path d="M410.002 201.005C410.002 213.368 408.885 225.471 406.746 237.214H386.805C376.236 237.214 367.67 228.641 367.67 218.08V187.605C367.67 177.029 376.236 168.463 386.805 168.463H407.38C409.109 179.054 410.002 189.925 410.002 201.005Z" fill="white"/>
<path d="M374.42 86.7879L360.329 100.88C352.858 108.358 340.74 108.351 333.27 100.88L311.722 79.3319C304.244 71.8609 304.244 59.7429 311.722 52.2729L326.26 37.7349C344.976 51.1989 361.287 67.8119 374.42 86.7879Z" fill="white"/>
<path d="M126.469 93.9326L103.315 116.553L104.857 118.131L128.011 95.5113L126.469 93.9326Z" fill="white"/>
<path d="M83.9559 149.502L75.216 180.668L77.3409 181.264L86.0808 150.098L83.9559 149.502Z" fill="white"/>
<path d="M75.0198 218.89L83.0346 250.254L85.173 249.707L77.1582 218.344L75.0198 218.89Z" fill="white"/>
<path d="M101.934 283.546L124.554 306.7L126.133 305.158L103.513 282.004L101.934 283.546Z" fill="white"/>
<path d="M157.472 325.976L188.641 334.716L189.237 332.591L158.068 323.851L157.472 325.976Z" fill="white"/>
<path d="M226.877 334.991L258.241 326.976L257.694 324.837L226.331 332.852L226.877 334.991Z" fill="white"/>
<path d="M291.539 308.068L314.693 285.448L313.151 283.87L289.997 306.49L291.539 308.068Z" fill="white"/>
<path d="M333.982 252.538L342.722 221.369L340.597 220.773L331.857 251.942L333.982 252.538Z" fill="white"/>
<path d="M342.995 183.126L334.98 151.762L332.842 152.309L340.857 183.672L342.995 183.126Z" fill="white"/>
<path d="M316.068 118.475L293.448 95.3206L291.869 96.8628L314.49 120.017L316.068 118.475Z" fill="white"/>
<path d="M260.525 76.0194L229.356 67.2795L228.76 69.4046L259.929 78.1445L260.525 76.0194Z" fill="white"/>
<path d="M191.117 67.0139L159.754 75.0287L160.3 77.1671L191.663 69.1522L191.117 67.0139Z" fill="white"/>
<path d="M297.633 289.64C346.587 240.687 346.587 161.317 297.633 112.363C248.68 63.4098 169.31 63.4098 120.356 112.363C71.4027 161.317 71.4027 240.687 120.356 289.641C169.31 338.594 248.68 338.594 297.633 289.64Z" fill="white"/>
<path d="M209 249.276C202.152 249.276 196.318 247.412 191.5 243.685C186.682 239.927 183 234.488 180.455 227.367C177.909 220.215 176.636 211.579 176.636 201.457C176.636 191.397 177.909 182.806 180.455 175.685C183.03 168.533 186.727 163.079 191.545 159.321C196.394 155.533 202.212 153.639 209 153.639C215.788 153.639 221.591 155.533 226.409 159.321C231.258 163.079 234.955 168.533 237.5 175.685C240.076 182.806 241.364 191.397 241.364 201.457C241.364 211.579 240.091 220.215 237.545 227.367C235 234.488 231.318 239.927 226.5 243.685C221.682 247.412 215.848 249.276 209 249.276ZM209 239.276C215.788 239.276 221.061 236.003 224.818 229.457C228.576 222.912 230.455 213.579 230.455 201.457C230.455 193.397 229.591 186.533 227.864 180.867C226.167 175.2 223.712 170.882 220.5 167.912C217.318 164.942 213.485 163.457 209 163.457C202.273 163.457 197.015 166.776 193.227 173.412C189.439 180.018 187.545 189.367 187.545 201.457C187.545 209.518 188.394 216.367 190.091 222.003C191.788 227.639 194.227 231.927 197.409 234.867C200.621 237.806 204.485 239.276 209 239.276Z" fill="url(#paint1_linear_1_280)"/>
</g>
<defs>
<filter id="filter0_d_1_280" x="0.000976562" y="0.00488281" width="418.001" height="418.001" filterUnits="userSpaceOnUse" color-interpolation-filters="sRGB">
<feFlood flood-opacity="0" result="BackgroundImageFix"/>
<feColorMatrix in="SourceAlpha" type="matrix" values="0 0 0 0 0 0 0 0 0 0 0 0 0 0 0 0 0 0 127 0" result="hardAlpha"/>
<feOffset dy="8"/>
<feGaussianBlur stdDeviation="4"/>
<feComposite in2="hardAlpha" operator="out"/>
<feColorMatrix type="matrix" values="0 0 0 0 0 0 0 0 0 0 0 0 0 0 0 0 0 0 0.25 0"/>
<feBlend mode="normal" in2="BackgroundImageFix" result="effect1_dropShadow_1_280"/>
<feBlend mode="normal" in="SourceGraphic" in2="effect1_dropShadow_1_280" result="shape"/>
</filter>
<linearGradient id="paint0_linear_1_280" x1="209.001" y1="0.00585937" x2="209.001" y2="402.006" gradientUnits="userSpaceOnUse">
<stop stop-color="#FF0900"/>
<stop offset="1" stop-color="#B500D1"/>
</linearGradient>
<linearGradient id="paint1_linear_1_280" x1="209" y1="155.003" x2="209" y2="248.003" gradientUnits="userSpaceOnUse">
<stop stop-color="#FF0900"/>
<stop offset="1" stop-color="#B500D1"/>
</linearGradient>
</defs>
</svg>
